# xmcd
#
# Track frame offsets:
# 150
# 16682
# 35048
# 52965
# 67904
# 83814
# 100136
# 116472
# 135449
# 154608
# 166135
# 180756
# 199704
# 217256
#
# Disc length: 3144 seconds
#
#
# Revision: 3
# Processed by: cddbd v1.5.1PL0 Copyright (c) Steve Scherf et al.
# Submitted via: FreeRIP 2.942 
#
DISCID=a80c460e
DTITLE=SomLivre - Vários - Vol 1 - Pra Sempre Sertanejo 2
DYEAR=2003
DGENRE=Country
TTITLE0=Pense em Mim - Leandro e Leonardo
TTITLE1=Faz Mais uma Vez Comigo - Z e L
TTITLE2=
TTITLE3=Gol do Coracao - Gian e Giovani
TTITLE4=Pra Ficar Dez - Rick e Renner
TTITLE5=Va Com Deus - Robarta Miranda
TTITLE6=Se Eu Nao Puder Te Esquecer - Joao Mineiro e Marciano
TTITLE7=Nuvem de Lagrimas - Fafa de Belem
TTITLE8=Laco Aberto - Ataide e Alexandre
TTITLE9=A Gata do Milenio - Daniel
TTITLE10=A Malvada - Juliano Cesar
TTITLE11=Um Cantinho do Seu Coracao - Chrystian e Ralf
TTITLE12=Te Busquei Nas Avenidas - Sergio e Tchelo
TTITLE13=Você Virou Saudade - Emilio e Eduardo
EXTD=YEAR: 2003
EXTT0=
EXTT1=
EXTT2=
EXTT3=
EXTT4=
EXTT5=
EXTT6=
EXTT7=
EXTT8=
EXTT9=
EXTT10=
EXTT11=
EXTT12=
EXTT13=
PLAYORDER=
